<svg xmlns="http://www.w3.org/2000/svg" fill-rule="evenodd" clip-rule="evenodd" image-rendering="optimizeQuality" shape-rendering="geometricPrecision" text-rendering="geometricPrecision" viewBox="0 0 2048 2048"><path fill="#9d9d9d" fill-rule="nonzero" d="M542.227 693.824h1.74l.397-.34L836.969 442.96l56.911-48.722c13.896-11.9 27.793-23.797 41.688-35.695V1024.002H542.226V693.823z"/><path fill="#414141" fill-rule="nonzero" d="M374.823 693.824h167.408v660.358H374.823c-32.74 0-62.464-14.277-83.966-37.274C269.35 1293.91 256 1262.126 256 1227.12V820.882c0-35.003 13.351-66.786 34.856-89.786 21.509-22.995 51.232-37.272 83.968-37.272z"/><path fill="#3c3c3c" fill-rule="nonzero" d="M542.229 1354.18H374.823c-32.74 0-62.464-14.277-83.966-37.274-21.506-22.998-34.858-54.782-34.858-89.787V1024h286.23v330.18z"/><path fill="#828282" fill-rule="nonzero" d="M935.568 1024v665.46l-98.599-84.42-292.995-250.86h-1.747V1024z"/><path fill="#717171" fill-rule="nonzero" d="M1544.08 1738.24c-22.252 26.733-60.563 29.115-85.563 5.32-25-23.794-27.229-64.76-4.977-91.493 70.03-84.29 124.323-180.676 161.045-284.002 36.76-103.433 56.056-214.188 56.056-327.115 0-120.261-21.963-238.057-63.542-347.22-41.631-109.302-102.845-209.985-181.286-295.876-23.297-25.615-22.767-66.582 1.187-91.495 23.954-24.913 62.266-24.344 85.564 1.269 89.61 98.121 159.465 212.946 206.883 337.44 47.47 124.635 72.55 258.947 72.55 395.881 0 128.217-22.07 254.426-64.118 372.735-42.083 118.414-104.05 228.568-183.8 324.555z"/><path fill="gray" fill-rule="nonzero" d="M1306.53 1509.17c-20.682 27.994-58.674 32.76-84.854 10.645-26.18-22.116-30.637-62.741-9.954-90.736 40.163-54.28 71.225-115.184 92.292-179.964 20.875-64.184 31.755-132.506 31.755-202.233 0-79.252-14.06-156.597-40.724-228.135-26.717-71.682-66.18-138.104-116.928-195.363-23.037-25.894-22.083-66.86 2.132-91.494 24.216-24.635 62.526-23.615 85.564 2.28 61.285 69.146 109.07 149.706 141.58 236.93 32.564 87.364 49.731 180.877 49.731 275.782 0 83.533-13.316 166.25-38.867 244.812-25.355 77.97-62.957 151.564-111.728 217.475z"/><path fill="#919191" fill-rule="nonzero" d="M1153.77 1251.82c-20.682 27.994-58.674 32.76-84.854 10.644-26.18-22.115-30.637-62.74-9.954-90.735 14.455-19.539 25.673-41.569 33.321-65.087 7.454-22.923 11.341-47.586 11.341-73.014 0-28.915-5.034-56.873-14.577-82.48-9.598-25.75-23.844-49.69-42.208-70.41-23.039-25.894-22.084-66.858 2.132-91.494 24.216-24.634 62.525-23.615 85.564 2.28 28.898 32.608 51.468 70.687 66.86 111.977 15.442 41.432 23.585 85.56 23.585 130.127 0 39.234-6.325 78.292-18.454 115.593-11.937 36.709-29.696 71.43-52.756 102.599z"/><g><path fill="#696969" fill-rule="nonzero" d="M1544.09 1738.24c-22.253 26.733-60.565 29.115-85.565 5.32-25-23.794-27.228-64.76-4.976-91.493 70.03-84.29 124.323-180.676 161.045-284.002 36.76-103.433 56.055-214.188 56.055-327.115 0-5.655-.048-11.305-.145-16.948h121.369c.085 5.644.132 11.294.132 16.948 0 128.217-22.07 254.426-64.117 372.735-42.083 118.414-104.052 228.568-183.797 324.555z"/><path fill="#767676" fill-rule="nonzero" d="M1306.53 1509.17c-20.682 27.994-58.674 32.76-84.854 10.645-26.18-22.116-30.637-62.741-9.954-90.736 40.163-54.28 71.225-115.184 92.293-179.964 20.875-64.184 31.754-132.506 31.754-202.233 0-7.644-.133-15.271-.393-22.876h121.415c.221 7.614.333 15.24.333 22.876 0 83.534-13.316 166.25-38.866 244.812-25.356 77.97-62.958 151.564-111.728 217.475z"/><path fill="#848484" fill-rule="nonzero" d="M1153.77 1251.82c-20.681 27.994-58.672 32.76-84.853 10.644-26.18-22.115-30.636-62.74-9.955-90.735 14.456-19.539 25.674-41.569 33.323-65.087 7.452-22.923 11.34-47.586 11.34-73.014 0-3.22-.063-6.428-.187-9.622h121.415c.084 3.205.128 6.411.128 9.622 0 39.234-6.325 78.292-18.454 115.593-11.936 36.708-29.696 71.43-52.757 102.599z"/></g><path fill="none" d="M0 0h2048v2048H0z"/></svg>